<?xml version="1.0" encoding="utf-8"?>
<!-- Generator: Adobe Illustrator 22.1.0, SVG Export Plug-In . SVG Version: 6.00 Build 0)  -->
<svg version="1.1" xmlns="http://www.w3.org/2000/svg" xmlns:xlink="http://www.w3.org/1999/xlink" x="0px" y="0px"
	 viewBox="0 0 1920 1080" style="enable-background:new 0 0 1920 1080;" xml:space="preserve">
<style type="text/css">
	.st0{fill:#004358;}
	.st1{fill-rule:evenodd;clip-rule:evenodd;fill:#EAA315;}
	.st2{fill:#F1C40F;}
	.st3{fill:#EAA315;}
	.st4{fill:#FCF1C5;}
	.st5{fill-rule:evenodd;clip-rule:evenodd;fill:#FCF1C5;}
</style>
<g id="bleu_foncé_-_barre">
</g>
<g id="bleu_clair_-_barre">
</g>
<g id="rouge_-_barre">
</g>
<g id="gris_-_barre">
</g>
<g id="fond-cup">
	<path class="st0" d="M1057,778.8c-0.5-5.3-1.7-10.9-3.7-16.4c-1.7-4.8-4-9.6-6.8-14.3c-0.9-1.5-2.1-3.1-3.6-5.2
		c-3.5-4.8-8.8-12.1-12.6-21.6c-4.1-10.2-5.9-16.5-4.8-22c0.4-0.4,12.4-9.1,12.4-9.1l-1.2-11l-0.9-4.7l-4.5-1.5
		c-0.7-0.2-4.4-1.3-9.8-1.4c-1.8-4.1-4.9-9.4-10.2-14.7c-5.9-5.8-13.3-10.5-22.1-13.8c-10.5-3.9-23.1-5.9-37.2-6l-0.1,0
		c-14.2,0-26.7,2-37.2,5.9c-8.8,3.3-16.2,7.9-22.1,13.8c-5.3,5.3-8.4,10.6-10.2,14.7c-5.5,0-9.1,1.1-9.8,1.4l-4.5,1.5l-0.9,4.7
		l-1.2,11c0,0,12,8.6,12.4,9.1c1.2,5.5-0.7,11.7-4.8,22c-3.8,9.5-9.1,16.8-12.6,21.6c-1.5,2.1-2.7,3.7-3.6,5.2
		c-2.8,4.7-5.1,9.6-6.8,14.3c-2,5.6-3.3,11.1-3.7,16.4c-0.5,6.1,0,12.1,1.5,17.8c1.7,6.2,4.6,12.2,8.8,17.6
		c3.6,4.7,8.9,9.3,15.8,13.5c6,3.7,13.4,7.3,21.9,10.6c14.8,5.8,33.4,11.2,55.3,16l1.8,0.4l1.8-0.4c46.1-11.4,79.5-22.6,92.8-40
		c4.1-5.4,7.1-11.3,8.8-17.6C1057,790.9,1057.5,785,1057,778.8z"/>
</g>
<g id="d">
</g>
<g id="i1">
</g>
<g id="g">
</g>
<g id="i2">
</g>
<g id="s">
</g>
<g id="c">
</g>
<g id="h">
</g>
<g id="oo">
</g>
<g id="l">
	<g>
		<path class="st1" d="M920.4,821.7c0-1.7,0-3.3,0-5c0.7,0.2,1.5,0.4,2.2,0.6c0,4.4,0,8.7,0,13.1c-0.7-0.2-1.5-0.4-2.2-0.6
			c0-0.2,0-0.4,0-0.6c-0.6,0.3-1.4,0.4-2.4,0.1c-0.8-0.3-1.6-0.7-2.3-1.4c-0.7-0.6-1.2-1.4-1.6-2.2c-0.4-0.8-0.6-1.7-0.6-2.5
			c0-1.3,0.4-2.2,1.3-2.8c0.9-0.6,1.9-0.7,3.2-0.3C918.9,820.4,919.7,820.9,920.4,821.7 M919.7,826.9c0.5-0.3,0.7-0.8,0.7-1.5
			c0-0.6-0.2-1.3-0.7-1.9c-0.5-0.6-1-1-1.7-1.2c-0.6-0.2-1.2-0.1-1.6,0.2c-0.5,0.3-0.7,0.8-0.7,1.5c0,0.7,0.2,1.3,0.7,1.9
			c0.5,0.6,1,1,1.6,1.2C918.6,827.3,919.2,827.2,919.7,826.9"/>
		<path class="st1" d="M924.1,830.8c0.7,0.2,1.5,0.4,2.2,0.5c0-2.9,0-5.8,0-8.7c-0.7-0.2-1.5-0.4-2.2-0.5
			C924.1,824.9,924.1,827.9,924.1,830.8z"/>
		<path class="st1" d="M924.2,818.2c-0.3,0.2-0.4,0.5-0.4,0.9c0,0.4,0.1,0.8,0.4,1.1c0.3,0.3,0.6,0.6,1,0.7c0.4,0.1,0.7,0,1-0.2
			c0.3-0.2,0.4-0.5,0.4-0.9c0-0.4-0.1-0.8-0.4-1.1c-0.3-0.3-0.6-0.5-1-0.6C924.8,817.9,924.5,818,924.2,818.2"/>
		<path class="st1" d="M934.7,824.9c-0.7-0.6-1.5-1-2.4-1.2c-1.3-0.2-2.4,0-3.3,0.7c-0.9,0.7-1.3,1.7-1.3,2.9c0,0.8,0.2,1.6,0.6,2.4
			c0.4,0.8,1,1.5,1.7,2s1.5,0.9,2.3,1.1c0.9,0.2,1.8,0,2.4-0.4c0,0.1,0,0.3,0,0.4c0,0.9-0.2,1.6-0.7,1.9c-0.4,0.3-1,0.5-1.8,0.3
			c-0.4-0.1-0.7-0.2-1-0.4c-0.3-0.2-0.6-0.5-0.8-0.8c-0.7,0.2-1.4,0.3-2.1,0.5c0.4,0.7,1,1.4,1.6,1.9c0.7,0.5,1.4,0.9,2.3,1
			c0.3,0,0.5,0.1,0.8,0.1c0.3,0,0.5,0,0.9,0c0.3,0,0.6-0.1,0.9-0.2c0.3-0.1,0.5-0.3,0.8-0.5c0.3-0.2,0.5-0.5,0.7-0.8
			c0.2-0.3,0.3-0.8,0.5-1.3c0.1-0.5,0.2-1.1,0.2-1.7c0-2.7,0-5.4,0-8.1c-0.8-0.1-1.5-0.2-2.3-0.3
			C934.7,824.4,934.7,824.6,934.7,824.9z M934,830.2c-0.5,0.4-1,0.5-1.7,0.4c-0.7-0.1-1.2-0.5-1.7-1c-0.5-0.6-0.7-1.2-0.7-1.8
			c0-0.6,0.2-1.2,0.7-1.5c0.5-0.4,1-0.5,1.7-0.4c0.7,0.1,1.2,0.5,1.7,1c0.5,0.6,0.7,1.2,0.7,1.8C934.7,829.3,934.5,829.8,934,830.2"
			/>
		<path class="st1" d="M938.5,833.5c0.8,0.1,1.5,0.2,2.3,0.3c0-2.9,0-5.8,0-8.7c-0.8-0.1-1.5-0.2-2.3-0.3
			C938.5,827.7,938.5,830.6,938.5,833.5z"/>
		<path class="st1" d="M939.7,820.6c-0.4,0-0.7,0-1,0.3c-0.3,0.2-0.4,0.6-0.4,1c0,0.4,0.1,0.8,0.4,1.1c0.3,0.3,0.6,0.5,1,0.5
			c0.4,0,0.7-0.1,1-0.3c0.3-0.2,0.4-0.6,0.4-1c0-0.4-0.1-0.8-0.4-1.1C940.4,820.8,940.1,820.7,939.7,820.6"/>
		<path class="st1" d="M948.7,826.8c-0.4-0.2-0.9-0.4-1.3-0.6c-0.4-0.2-0.8-0.4-1.2-0.5c-0.4-0.2-0.7-0.4-0.9-0.7
			c-0.2-0.3-0.3-0.6-0.3-0.9c0-0.4,0.2-0.8,0.5-1c0.3-0.2,0.8-0.3,1.4-0.3c1,0,1.8,0.4,2.5,1c0.4-0.6,0.8-1.2,1.3-1.8
			c-1.2-0.8-2.4-1.3-3.7-1.4c-1.3-0.1-2.4,0.2-3.2,0.8c-0.8,0.6-1.2,1.5-1.2,2.7c0,0.5,0.1,0.9,0.2,1.3c0.1,0.4,0.3,0.7,0.6,1
			c0.2,0.3,0.5,0.5,0.8,0.7c0.3,0.2,0.6,0.4,1,0.6c0.3,0.2,0.7,0.3,1,0.5c0.3,0.1,0.7,0.3,1,0.4c0.3,0.1,0.6,0.3,0.8,0.5
			c0.2,0.2,0.4,0.4,0.6,0.6c0.1,0.2,0.2,0.5,0.2,0.7c0,0.5-0.2,0.9-0.5,1.2c-0.4,0.3-0.9,0.5-1.6,0.5c-0.4,0-0.7-0.1-1-0.2
			c-0.3-0.1-0.6-0.3-0.9-0.5c-0.3-0.2-0.5-0.4-0.7-0.6c-0.2-0.2-0.4-0.4-0.6-0.7c-0.5,0.5-1,0.9-1.5,1.4c0.5,0.6,0.9,1.2,1.5,1.6
			c0.5,0.4,1.1,0.7,1.6,0.8c0.5,0.2,1,0.2,1.6,0.3c1.5,0.1,2.6-0.3,3.4-1c0.8-0.7,1.2-1.7,1.2-2.9c0-0.6-0.1-1.2-0.3-1.7
			c-0.2-0.5-0.5-0.9-0.9-1.1C949.6,827.3,949.2,827.1,948.7,826.8"/>
		<path class="st1" d="M957.9,832c-0.4,0.2-0.8,0.3-1.2,0.3c-0.7,0-1.2-0.2-1.7-0.7c-0.5-0.5-0.7-1-0.7-1.7c0-0.6,0.2-1.2,0.7-1.7
			c0.5-0.5,1-0.7,1.7-0.8c0.4,0,0.8,0.1,1.1,0.2c0.3,0.2,0.6,0.4,0.9,0.7c0.6-0.4,1.3-0.8,1.9-1.2c-0.4-0.6-1-1.1-1.7-1.4
			c-0.7-0.3-1.4-0.5-2.3-0.5c-1.3,0-2.4,0.5-3.3,1.4c-0.9,0.9-1.4,2-1.4,3.2c0,0.8,0.2,1.6,0.6,2.3c0.4,0.7,1,1.3,1.7,1.7
			c0.7,0.4,1.5,0.6,2.3,0.6c0.8,0,1.6-0.3,2.3-0.7c0.7-0.4,1.3-1,1.7-1.7c-0.6-0.3-1.3-0.7-1.9-1C958.5,831.5,958.2,831.8,957.9,832
			"/>
		<path class="st1" d="M968.8,825.2c-0.3-0.3-0.7-0.4-1.1-0.5c-0.4-0.1-0.9-0.1-1.4-0.1c-0.4,0-0.7,0.1-1,0.3
			c-0.3,0.1-0.6,0.2-0.7,0.4c-0.2,0.1-0.3,0.3-0.6,0.4c0-1.7,0-3.3,0-5c-0.8,0.1-1.5,0.1-2.3,0.2c0,4.4,0,8.7,0,13.1
			c0.8-0.1,1.5-0.1,2.3-0.2c0-1.6,0-3.1,0-4.7c0-1.4,0.6-2.1,1.8-2.2c1.2-0.1,1.8,0.5,1.8,1.8c0,1.6,0,3.1,0,4.7
			c0.8-0.1,1.5-0.2,2.3-0.3c0-1.7,0-3.4,0-5c0-0.7-0.1-1.2-0.3-1.7C969.4,825.8,969.1,825.5,968.8,825.2"/>
		<path class="st1" d="M984.8,821.4c-0.7-0.2-1.5-0.2-2.3,0.1c-1.2,0.3-2.2,1-3,1.9c0.2,0.1,0.3,0.2,0.4,0.3
			c0.2,0.2,0.3,0.3,0.5,0.6c0.1,0.2,0.3,0.4,0.3,0.7c0-0.1,0.1-0.1,0.1-0.2c0.5-0.6,1-1,1.7-1.2c0.7-0.2,1.2-0.1,1.7,0.2
			c0.5,0.3,0.7,0.8,0.7,1.5c0,0.7-0.2,1.3-0.7,1.9c-0.5,0.6-1,1-1.7,1.2c-0.6,0.2-1.2,0.1-1.7-0.3c0,0-0.1-0.1-0.1-0.1
			c-0.4-0.3-0.6-0.8-0.6-1.4c0,0,0,0,0,0c0-0.8-0.2-1.5-0.6-2.1c-0.3-0.5-0.7-0.8-1.2-1.1c-0.8-0.4-1.7-0.5-2.8-0.3
			c-0.8,0.2-1.6,0.5-2.3,1.1c-0.7,0.5-1.3,1.2-1.7,2c-0.4,0.8-0.6,1.6-0.6,2.4c0,0.8,0.2,1.6,0.6,2.2c0.4,0.6,1,1.1,1.7,1.4
			c0.7,0.3,1.5,0.3,2.3,0.2c0.8-0.2,1.6-0.6,2.3-1.1c0.3-0.2,0.5-0.5,0.8-0.7c-0.2-0.1-0.3-0.2-0.4-0.3c-0.2-0.2-0.3-0.4-0.5-0.6
			c-0.1-0.2-0.3-0.4-0.3-0.7c0,0.1-0.1,0.1-0.1,0.2c-0.5,0.6-1,0.9-1.7,1.1c-0.7,0.1-1.2,0-1.7-0.4c-0.5-0.4-0.7-0.9-0.7-1.5
			c0-0.6,0.2-1.3,0.7-1.8c0.5-0.6,1-0.9,1.7-1.1c0.7-0.1,1.2,0,1.7,0.3c0.5,0.4,0.7,0.9,0.7,1.5c0,0,0,0,0,0c0,0.8,0.2,1.5,0.6,2.2
			c0.3,0.5,0.8,0.9,1.3,1.1c0,0,0,0,0,0c0.1,0,0.1,0.1,0.2,0.1c0.1,0,0.1,0.1,0.2,0.1c0.7,0.2,1.5,0.2,2.3,0
			c0.8-0.2,1.6-0.7,2.3-1.3c0.7-0.6,1.2-1.3,1.6-2.2c0.4-0.8,0.6-1.7,0.6-2.5c0-0.8-0.2-1.5-0.6-2.1
			C986.1,822,985.5,821.6,984.8,821.4"/>
		<path class="st1" d="M991.2,825.8c-0.4,0.1-0.6,0.1-0.7,0c-0.1-0.1-0.2-0.3-0.2-0.7c0-3.4,0-6.8,0-10.2c-0.7,0.3-1.5,0.5-2.2,0.7
			c0,3.6,0,7.2,0,10.7c0,0.8,0.2,1.4,0.6,1.7c0.4,0.3,1,0.3,1.9,0c0.3-0.1,0.6-0.3,0.9-0.5c0-0.7,0-1.3,0-2
			C991.5,825.7,991.4,825.7,991.2,825.8"/>
	</g>
</g>
<g id="cup">
	<g>
		<path class="st2" d="M965.1,768c15.9-1.7,34.8,1.2,49.4,5.4c-6.8-30.4-10.3-55.6-7.5-79.7c-2.7-2.3-12.6-9.5-33.3-15.1
			c6.4-1.5,13.7,0,13.7,0v-3.7c-9.7-6.6-21.1-7.7-21.1-7.7s1.2,9.1,1,14.7c-3.5,6-15.7,13-15.7,13s-12.2-7-15.7-13
			c-0.2-5.6,1-14.7,1-14.7s-11.4,1.2-21.1,7.7v3.7c0,0,7.4-1.5,13.7,0c-20.7,5.6-30.6,12.8-33.3,15.1c2.7,24.2-0.8,49.4-7.5,79.7
			c14.5-4.3,33.5-7.2,49.4-5.4c-16.3,1.7-43.9,6.8-53.2,13.2c5.8,8.9,36.8,30.8,66.8,35.8c31-5,61-26.9,66.8-35.8
			C1009,774.7,981.3,769.7,965.1,768z"/>
		<path class="st3" d="M993.9,685.8c-0.7,6.1-1.6,18-0.9,34c0.8,20.1,4.1,42.9,5.1,49.8c5.8,1,11.4,2.3,16.4,3.8
			c-6.8-30.4-10.3-55.6-7.5-79.7C1005.3,692.3,1001.2,689.2,993.9,685.8z"/>
		<path class="st3" d="M951.5,816.9c31.5-4.8,61-26.9,66.8-35.8c-5.7-3.7-13.6-5.8-20.6-7.5c3.1,1,4.1,2.3,4.8,3.1
			C1000.2,781.9,982.9,808.6,951.5,816.9z"/>
		<path class="st3" d="M982.2,677.9c3,0.2,5.1,0.6,5.1,0.6v-3.7c-1.7-1.2-3.4-2.1-5.2-3C982.4,673.3,982.6,675.6,982.2,677.9z"/>
		<path class="st3" d="M898.8,770.8c0.5-6.9,3.5-27.6,3.9-40.8c0.3-11.3-0.8-33.9-1.8-39.7c-2.3,1.5-3.8,2.6-4.7,3.4
			c2.7,24.2-0.8,49.4-7.5,79.7C891.8,772.4,895.2,771.6,898.8,770.8z"/>
		<path class="st3" d="M918.3,673.2c-0.9,0.5-1.7,1-2.6,1.6v3.7c0,0,1-0.2,2.5-0.4C918.1,676.5,918.2,674.5,918.3,673.2z"/>
		<path class="st3" d="M939.4,814c-26.4-10.4-39.6-27.7-44.8-33.9c0.3-1.2,1.3-2.3,5.2-5c-2.9,0.8-10.2,2.7-15,6
			C889.8,788.8,913.6,806.2,939.4,814L939.4,814z"/>
		<path class="st4" d="M929.4,678.5c0.2-0.1,1.7-0.8,6-1.5c-3.3,0-4.1,0.2-4.1,0.2s-1.2-4.5,0.6-9.2c-2.8,0.7-6.5,1.8-9.2,3
			c-0.2,1.7-0.6,4.9,0.1,6.9C925.3,678,926.9,677.9,929.4,678.5z"/>
		<path class="st4" d="M921.7,767.6L921.7,767.6c3.8-50.3-1.6-75.9-1.6-84.8c3.2-1.9,6.2-3.2,7.8-3.8c-9.5,2.7-16.7,5.7-21.8,8.3
			c4.7,36.9,1.8,73.2-0.1,82.1C911.1,768.5,916.5,767.9,921.7,767.6z"/>
		<path class="st5" d="M921,778.4c-0.9-2.5-1-4.5,0.6-8.1c-5.6,1-11.4,2.1-16.8,3.4c-1.3,1.8-3.3,4.7-3.5,6.2
			c3.5,3.3,15.9,24.6,42.6,33.1C935.2,805.5,921.8,781.5,921,778.4z"/>
	</g>
	<g>
		<path class="st2" d="M939.9,662.7c0,0-1.4,13.2-1.4,17.6c3.5,4.5,13,9.5,13,9.5s9.5-5,13-9.5c0-4.5-1.4-17.6-1.4-17.6
			s-1.7-2.5-11.6-2.7C941.6,660.1,939.9,662.7,939.9,662.7z"/>
		<path class="st3" d="M963.1,662.7c0,0-0.4-0.6-2.2-1.3c0.4,4,1.6,13.9,1.6,17.4c-3.6,4.6-11.3,8.7-11.3,8.7s-6.8-2.3-10.7-5.1
			c4.2,3.8,11,7.4,11,7.4s9.5-5,13-9.5C964.5,675.8,963.1,662.7,963.1,662.7z"/>
		<path class="st4" d="M953.1,660c-0.5,0-1,0-1.6-0.1c-9.9,0.2-11.6,2.7-11.6,2.7s-1.4,13.2-1.4,17.6c1.4,1.7,3.6,3.6,5.9,5.1
			c-1.7-15.1-0.5-19.1,0.6-23.7C947.5,660.5,950.6,660.5,953.1,660z"/>
	</g>
	<g>
		<path class="st2" d="M1005.2,670.4c0,0-9.3-20.1-53.6-20.5c-44.3-0.4-53.8,20.5-53.8,20.5s3.1-3.9,10.1-8.1c0.2,1.9,1.4,7.5,4,9.1
			c4.8-1.9,16.8-7.2,25.1-7.7c0.1-1.9,0.4-2.5,0.4-2.5s6.4-2.7,14-2.7c8.1,0,13.8,2.7,13.8,2.7s0.5,0.8,0.4,2.5
			c8.2,0.5,21,6.4,25.5,7.7c2.6-1.5,3.4-7.2,3.6-9.1C1002,666.5,1005.2,670.4,1005.2,670.4z"/>
		<path class="st3" d="M912.8,657.3c-11.7,5.9-15,13.1-15,13.1s3.1-3.9,10.1-8.1c0.2,1.9,1.4,7.5,4,9.1c0.9-0.3,2.6-1,3.9-1.5
			C913.7,665.4,912.7,660.6,912.8,657.3z"/>
		<path class="st4" d="M962.1,650.4c-3.3-0.3-6.8-0.5-10.5-0.5c-9-0.1-16.6,0.7-22.9,2.1c0,0,0,0,0,0c0,0-0.1,0-0.1,0
			c-0.3,0.1-0.5,0.1-0.8,0.2c-0.1,0-0.3,0.1-0.4,0.1c-0.2,0.1-0.4,0.1-0.7,0.2c-0.1,0-0.3,0.1-0.4,0.1c-0.2,0-0.4,0.1-0.5,0.1
			c-0.1,0-0.3,0.1-0.4,0.1c-0.2,0-0.4,0.1-0.5,0.1c-0.1,0-0.3,0.1-0.4,0.1c-0.3,0.1-0.6,0.2-0.8,0.2c-0.1,0-0.2,0.1-0.4,0.1
			c-0.2,0.1-0.4,0.1-0.5,0.2c-0.1,0-0.3,0.1-0.4,0.1c-0.2,0-0.3,0.1-0.5,0.1c-0.1,0-0.3,0.1-0.4,0.1c-0.2,0.1-0.3,0.1-0.5,0.2
			c-0.1,0-0.2,0.1-0.3,0.1c0,0,0,0,0,0v0c-2.4,0.8-4.6,1.7-6.5,2.6c0,0,3.1-1.1,6.5-2c0,3.6,0,9.1,2,12.5c2.9-1,7.6-2.4,10.5-3.1
			c-0.7-2.4-1.3-9.4-0.6-11.8C936,651.3,943.2,650.2,962.1,650.4z"/>
		<path class="st3" d="M983.5,654.8c0.2,3.3,0,7.1-1.2,10.5c-0.7,0.1-2.3,0.3-4.9-0.1c-2.9-0.4-6.9-1.4-9.6-1.3
			c4.2,0.6,9.1,2.3,13.5,3.9c0.1,0,0.1,0.1,0.2,0.1c0.2,0.1,0.5,0.2,0.7,0.3c0.1,0,0.2,0.1,0.4,0.1c0.2,0.1,0.3,0.1,0.5,0.2
			c0.1,0,0.3,0.1,0.4,0.1c0.2,0.1,0.4,0.1,0.5,0.2c3,1.1,5.5,2.1,7.1,2.6c2.6-1.5,3.4-7.2,3.6-9.1c7.3,4.2,10.5,8.1,10.5,8.1
			S1000.8,660.8,983.5,654.8z"/>
	</g>
</g>
<g id="anse-droite">
	<g>
		<path class="st2" d="M1040.7,775c-1.4-14.3-12.8-26.9-18.8-37.2c-6-10.3-8.1-20.5-9.7-31.4s2.5-16.6,9.7-21.5
			c-8.9,1.7-12.2,8.7-12.2,8.7c-1.1,26,2.4,40.7,4.1,45.9c0,0,0,0,0,0.1l0,0c0.3,0.9,0.5,1.6,0.6,1.9c0.7,2,1.5,4.5,1.5,4.5
			c1,1.7,8.1,13,11.6,25c-0.1-6.1-2.2-13.4-4.1-18.9c4.1,6,8.2,14.2,9.1,23.9c2.2,22.8-16.3,31.7-24.8,36
			c-1.5,9.1-7.4,13.2-7.4,13.2C1038.3,814.9,1042.2,791.4,1040.7,775z"/>
		<path class="st4" d="M1013.8,739.7L1013.8,739.7c0.3,0.9,0.5,1.6,0.6,1.9c0.5,1.6,1.1,3.5,1.4,4.2c0,0,0-0.1,0-0.2
			c-1-9.1-7.5-25.4-4.3-48.8c0.7-5.1,5.2-9.1,8.6-11.5c-7.6,2.2-10.4,8.3-10.4,8.3C1008.6,719.7,1012.1,734.4,1013.8,739.7
			C1013.8,739.7,1013.8,739.7,1013.8,739.7z"/>
		<path class="st3" d="M1020,747.6c1.3,4.6,2.1,8.2,2.5,10.8c1.8,3.8,3.6,8.2,4.9,12.7c-0.1-6.1-2.2-13.4-4.1-18.9
			c0,0,0.1,0.1,0.1,0.1C1021.6,749,1020,747.6,1020,747.6z"/>
		<path class="st3" d="M1040.7,775c-1-10.5-7.3-20-13-28.3c3.8,10.5,7.6,25.1,5,36c0,0,0,0,0,0c-1.5,18.1-17.2,25.7-24.8,29.5
			c-1.5,9.1-7.4,13.2-7.4,13.2C1038.3,814.9,1042.2,791.4,1040.7,775z"/>
	</g>
</g>
<g id="anse-gauche">
	<g>
		<path class="st2" d="M862.5,775c1.4-14.3,12.8-26.9,18.8-37.2c6-10.3,8.1-20.5,9.7-31.4c1.5-10.8-2.5-16.6-9.7-21.5
			c8.9,1.7,12.2,8.7,12.2,8.7c1.1,26-2.4,40.7-4.1,45.9c0,0,0,0,0,0.1l0,0c-0.3,0.9-0.5,1.6-0.6,1.9c-0.7,2-1.5,4.5-1.5,4.5
			c-1,1.7-8.1,13-11.6,25c0.1-6.1,2.2-13.4,4.1-18.9c-4.1,6-8.2,14.2-9.1,23.9c-2.2,22.8,16.3,31.7,24.8,36
			c1.5,9.1,7.4,13.2,7.4,13.2C864.8,814.9,860.9,791.4,862.5,775z"/>
		<path class="st3" d="M890.7,731.7L890.7,731.7c-0.2,0.7-0.4,1.4-0.8,2.3c-0.8,2.4-1.9,4.8-1.9,4.8c-0.9,1.7-6.7,11.7-11.1,22.9
			c-0.8,3.2-1.3,6.5-1.3,9.5c3.5-12,10.6-23.2,11.6-25c0,0,0.8-2.5,1.5-4.5c0.1-0.3,0.4-1,0.6-1.9l0,0c0,0,0-0.1,0-0.1
			c0.7-2.4,1.9-6.8,2.8-13.3C891.7,728.6,891.2,730.4,890.7,731.7C890.8,731.7,890.8,731.7,890.7,731.7z"/>
		<path class="st4" d="M886.4,732.8c5.1-14.1,5.3-24.1,4.8-28.9c-0.1,0.8-0.1,1.7-0.3,2.6c-1.5,10.8-3.7,21.1-9.7,31.4
			c-6,10.3-17.4,22.8-18.8,37.2c0,0.3-0.1,0.7-0.1,1c2.9-11.7,3.4-12.6,7.6-19.2C874.8,749.1,883.1,741.9,886.4,732.8z"/>
		<path class="st3" d="M896.8,817.1c-0.3-0.7-0.5-1.4-0.7-2.1c0-0.1,0-0.2-0.1-0.2c0-0.1-0.1-0.2-0.1-0.4c0-0.1-0.1-0.2-0.1-0.4
			c0-0.1-0.1-0.2-0.1-0.3c0-0.2-0.1-0.3-0.1-0.5c0-0.1,0-0.2-0.1-0.3c-0.1-0.3-0.1-0.5-0.1-0.8c-8.5-4.3-26.9-13.2-24.8-36
			c0.6-6.5,4.9-18.2,8.8-23.4c1-4.4,1.8-6.6,3.1-10.3c-4.3,6.3-13.5,21.8-14.8,37.3c-0.7,8.2,0.8,16.5,1.7,20.1
			c-3.7-1.7-5.1-7-5.8-7.5c3.3,12.8,13.4,25.9,39.1,33C902.7,825.3,899.1,822.8,896.8,817.1z"/>
	</g>
</g>
<g id="Calque_1">
</g>
</svg>
