<svg enable-background="new 0 0 110 100" height="100" viewBox="0 0 110 100" width="110" xmlns="http://www.w3.org/2000/svg"><path d="m102.326 65.48c-.222-2.332-.748-4.797-1.629-7.218-.748-2.113-1.762-4.226-2.993-6.294-.396-.661-.924-1.364-1.585-2.289-1.54-2.114-3.872-5.326-5.545-9.507-1.806-4.491-2.597-7.263-2.114-9.683.177-.176 5.459-4.006 5.459-4.006l-.528-4.842-.396-2.068-1.981-.661c-.309-.087-1.937-.572-4.313-.616-.792-1.805-2.157-4.137-4.489-6.471-2.597-2.552-5.854-4.62-9.727-6.073-4.623-1.716-10.17-2.596-16.375-2.64h-.044c-6.251 0-11.752.879-16.374 2.597-3.874 1.451-7.131 3.476-9.727 6.073-2.333 2.333-3.698 4.666-4.491 6.471-2.421 0-4.005.484-4.313.616l-1.98.661-.396 2.069-.528 4.842s5.281 3.785 5.458 4.004c.528 2.421-.309 5.15-2.112 9.684-1.672 4.182-4.006 7.395-5.546 9.507-.661.924-1.189 1.628-1.585 2.29-1.231 2.068-2.245 4.225-2.993 6.293-.879 2.466-1.451 4.887-1.627 7.219-.221 2.687 0 5.327.66 7.835.748 2.729 2.025 5.37 3.874 7.747 1.584 2.069 3.917 4.094 6.954 5.942 2.641 1.628 5.898 3.213 9.64 4.666 6.514 2.552 14.701 4.929 24.341 7.041l.792.176.792-.176c20.291-5.017 34.992-9.947 40.846-17.605 1.805-2.377 3.125-4.974 3.873-7.747.702-2.51.922-5.107.702-7.837z" fill="#014358"/><g fill="#eaa417"><path d="m42.201 84.364c0-.748 0-1.453 0-2.201.309.087.661.176.968.264v5.766c-.307-.087-.659-.176-.968-.263 0-.089 0-.177 0-.264-.264.131-.616.175-1.057.043-.351-.132-.703-.309-1.012-.617-.309-.263-.528-.615-.705-.968-.176-.353-.263-.748-.263-1.101 0-.572.176-.968.572-1.231.396-.265.836-.309 1.409-.133.396.133.749.353 1.056.705m-.307 2.288c.22-.132.307-.352.307-.661 0-.263-.087-.571-.307-.835-.221-.264-.441-.439-.75-.528-.263-.088-.527-.044-.703.089-.22.131-.309.352-.309.659 0 .309.089.572.309.837.22.264.44.439.703.528.265.088.528.044.75-.089"/><path d="m43.83 88.369c.309.089.659.176.968.22 0-1.275 0-2.552 0-3.829-.309-.089-.659-.176-.968-.22z"/><path d="m43.873 82.824c-.132.087-.176.22-.176.396 0 .177.043.353.176.483.133.133.265.265.441.309.174.044.307 0 .439-.089.132-.087.176-.22.176-.396 0-.177-.044-.353-.176-.483-.132-.133-.265-.22-.439-.265-.176-.088-.308-.044-.441.045"/><path d="m48.495 85.771c-.309-.263-.661-.439-1.057-.528-.572-.087-1.056 0-1.453.309-.396.309-.572.749-.572 1.277 0 .352.088.704.265 1.057s.44.659.749.879c.309.222.659.397 1.012.485.396.087.793 0 1.057-.177v.177c0 .396-.089.704-.309.835-.176.133-.439.222-.792.133-.176-.044-.309-.088-.439-.177-.133-.087-.265-.22-.353-.352-.309.089-.617.132-.924.221.176.308.44.616.705.836.307.22.616.396 1.012.439.132 0 .22.045.353.045h.396c.132 0 .263-.045.396-.089.133-.043.22-.132.353-.22.132-.089.22-.22.309-.352.087-.133.131-.353.22-.572.044-.22.087-.485.087-.748 0-1.188 0-2.378 0-3.565-.351-.044-.66-.089-1.012-.133-.003.001-.003.09-.003.22zm-.308 2.334c-.22.176-.439.22-.748.176-.307-.043-.529-.22-.749-.44-.22-.264-.307-.527-.307-.792 0-.264.087-.528.307-.66.22-.176.441-.221.749-.176.309.044.528.22.748.439.22.264.309.528.309.792-.001.265-.09.486-.309.661"/><path d="m50.168 89.559c.352.043.659.087 1.012.131 0-1.275 0-2.552 0-3.829-.353-.043-.66-.089-1.012-.132z"/><path d="m50.696 83.88c-.176 0-.309 0-.441.132-.131.088-.176.264-.176.439 0 .177.045.353.176.485.133.132.265.22.441.22s.307-.044.439-.133c.132-.087.176-.264.176-.439s-.044-.353-.176-.484-.263-.177-.439-.22"/><path d="m54.657 86.609c-.176-.089-.396-.177-.572-.266-.176-.087-.352-.176-.528-.22-.176-.087-.309-.176-.396-.307-.087-.133-.132-.266-.132-.397 0-.177.089-.352.22-.44.132-.087.352-.132.617-.132.439 0 .792.176 1.101.44.176-.265.352-.528.572-.793-.529-.351-1.057-.572-1.629-.615-.572-.044-1.057.088-1.409.352-.351.264-.527.661-.527 1.188 0 .221.044.397.087.571.044.177.133.31.264.441.089.133.221.22.352.308.133.089.265.176.441.265.131.087.307.133.439.22.132.044.309.133.439.176.133.044.265.133.353.221.089.088.176.176.265.265.044.087.087.22.087.307 0 .222-.087.396-.22.528-.176.133-.396.221-.705.221-.176 0-.307-.044-.439-.088s-.264-.133-.396-.22c-.132-.089-.22-.176-.309-.265-.087-.088-.176-.177-.264-.308-.22.22-.441.396-.661.616.22.264.396.528.661.704.22.177.483.308.703.353.221.087.441.087.705.131.661.045 1.145-.131 1.497-.439s.528-.748.528-1.276c0-.264-.043-.528-.132-.749-.087-.22-.22-.396-.396-.484-.22-.088-.396-.177-.616-.308"/><path d="m58.707 88.897c-.176.089-.353.132-.528.132-.309 0-.528-.088-.748-.309-.22-.22-.309-.439-.309-.748 0-.264.089-.528.309-.748s.439-.309.748-.353c.176 0 .353.044.484.089.131.088.264.177.396.308.263-.177.572-.353.835-.528-.176-.264-.439-.483-.748-.616s-.615-.22-1.012-.22c-.572 0-1.057.22-1.453.616s-.615.88-.615 1.409c0 .352.087.704.264 1.012.176.309.439.571.748.748.309.176.661.265 1.012.265.353 0 .704-.133 1.013-.309s.572-.439.749-.748c-.266-.133-.572-.309-.838-.439-.043.22-.176.352-.307.439"/><path d="m63.505 85.904c-.133-.133-.309-.176-.484-.22-.177-.044-.396-.044-.616-.044-.176 0-.309.044-.44.131-.132.046-.264.089-.308.177-.089.043-.133.132-.265.176 0-.748 0-1.453 0-2.201-.353.045-.66.045-1.012.089v5.767c.352-.044.659-.044 1.012-.089 0-.703 0-1.364 0-2.068 0-.616.265-.925.792-.969.528-.043.793.22.793.792v2.068c.353-.043.659-.087 1.012-.131 0-.748 0-1.496 0-2.201 0-.309-.044-.528-.133-.748-.087-.265-.22-.396-.351-.529"/><path d="m70.546 84.231c-.307-.087-.659-.087-1.012.044-.528.133-.968.441-1.32.837.088.044.132.088.177.131.087.089.131.133.22.266.044.087.133.176.133.309 0-.046.043-.046.043-.089.22-.264.439-.44.748-.528s.529-.044.749.088.309.353.309.66c0 .309-.089.572-.309.837-.22.264-.44.439-.749.528-.265.087-.528.044-.748-.133l-.043-.043c-.177-.133-.266-.353-.266-.617 0-.353-.087-.66-.264-.925-.132-.22-.309-.353-.528-.483-.352-.176-.748-.22-1.232-.133-.353.089-.703.221-1.012.485-.309.22-.572.526-.748.879-.177.353-.266.705-.266 1.057 0 .353.089.705.266.969.176.265.439.484.748.617.309.131.659.131 1.012.087.352-.087.704-.264 1.013-.484.131-.088.22-.22.353-.308-.089-.043-.133-.089-.176-.132-.089-.088-.133-.177-.221-.264-.045-.089-.132-.177-.132-.309 0 .044-.044.044-.044.089-.221.264-.441.396-.748.483-.309.043-.528 0-.748-.177-.222-.176-.309-.396-.309-.659 0-.265.087-.572.309-.793.22-.264.439-.396.748-.483.307-.044.527 0 .748.132.22.175.308.396.308.66 0 .352.089.66.265.968.131.22.353.396.572.484.043 0 .043.044.087.044s.044.044.089.044c.308.089.659.089 1.012 0 .353-.088.705-.308 1.014-.572.307-.264.526-.572.703-.968.176-.353.265-.749.265-1.101 0-.353-.089-.66-.265-.925-.179-.308-.443-.483-.751-.572"/><path d="m73.363 86.168c-.177.045-.264.045-.308 0-.043-.044-.089-.131-.089-.308 0-1.496 0-2.992 0-4.489-.307.131-.659.22-.968.308v4.71c0 .352.089.616.265.749.175.131.44.131.836 0 .133-.046.264-.133.396-.222 0-.307 0-.572 0-.879.001.087-.043.087-.132.131"/></g><path d="m61.876 60.728c6.998-.748 15.317.528 21.743 2.377-2.993-13.38-4.533-24.473-3.301-35.081-1.189-1.012-5.546-4.181-14.657-6.645 2.816-.661 6.029 0 6.029 0v-1.629c-4.269-2.905-9.286-3.389-9.286-3.389s.527 4.005.439 6.471c-1.54 2.641-6.91 5.721-6.91 5.721s-5.37-3.08-6.91-5.721c-.089-2.466.44-6.471.44-6.471s-5.018.528-9.288 3.389v1.629s3.258-.661 6.031 0c-9.111 2.464-13.47 5.633-14.657 6.645 1.188 10.653-.353 21.744-3.302 35.081 6.383-1.892 14.745-3.169 21.744-2.377-7.174.748-19.323 2.993-23.417 5.81 2.554 3.918 16.198 13.558 29.403 15.759 13.645-2.201 26.85-11.841 29.402-15.759-4.181-2.861-16.373-5.062-23.503-5.81z" fill="#f1c410"/><path d="m74.553 24.547c-.309 2.684-.705 7.922-.396 14.965.353 8.846 1.804 18.882 2.245 21.92 2.552.439 5.018 1.012 7.218 1.672-2.993-13.38-4.533-24.473-3.301-35.081-.749-.615-2.553-1.979-5.766-3.476z" fill="#eaa417"/><path d="m55.89 82.25c13.865-2.111 26.849-11.839 29.401-15.756-2.508-1.629-5.985-2.554-9.066-3.302 1.364.439 1.804 1.013 2.112 1.364-1.012 2.29-8.626 14.042-22.447 17.694z" fill="#eaa417"/><path d="m69.402 21.069c1.32.087 2.244.264 2.244.264v-1.627c-.748-.528-1.496-.924-2.288-1.32.133.659.22 1.672.044 2.683z" fill="#eaa417"/><path d="m32.693 61.961c.22-3.038 1.54-12.15 1.716-17.959.132-4.974-.353-14.921-.792-17.475-1.012.661-1.673 1.145-2.068 1.497 1.188 10.653-.353 21.744-3.302 35.081 1.366-.441 2.862-.793 4.446-1.144z" fill="#eaa417"/><path d="m41.276 19.001c-.396.22-.749.439-1.145.705v1.627s.44-.087 1.101-.176c-.043-.703 0-1.584.044-2.156z" fill="#eaa417"/><path d="m50.563 80.976c-11.619-4.578-17.429-12.193-19.719-14.923.132-.527.572-1.012 2.29-2.199-1.276.352-4.491 1.188-6.603 2.641 2.201 3.388 12.677 11.046 24.032 14.481z" fill="#eaa417"/><path d="m46.162 21.333c.089-.043.748-.351 2.642-.659-1.453 0-1.805.087-1.805.087s-.528-1.979.264-4.048c-1.231.307-2.86.792-4.048 1.32-.089.749-.265 2.156.043 3.037 1.1.043 1.805-.001 2.904.263z" fill="#fcf1c5"/><path d="m42.772 60.552c1.673-22.14-.704-33.407-.704-37.325 1.409-.837 2.729-1.409 3.434-1.673-4.182 1.188-7.351 2.508-9.596 3.652 2.07 16.242.793 32.219-.044 36.137 2.245-.396 4.622-.659 6.91-.791z" fill="#fcf1c5"/><path d="m42.465 65.305c-.397-1.1-.441-1.98.264-3.565-2.464.441-5.018.925-7.395 1.497-.572.793-1.451 2.069-1.54 2.729 1.54 1.452 6.999 10.827 18.751 14.568-3.83-3.3-9.729-13.864-10.08-15.229z" fill="#fcf1c5"/><path d="m50.784 14.379s-.616 5.81-.616 7.748c1.54 1.98 5.722 4.181 5.722 4.181s4.181-2.201 5.721-4.181c0-1.981-.616-7.748-.616-7.748s-.748-1.1-5.105-1.188c-4.358.044-5.106 1.188-5.106 1.188z" fill="#f1c410"/><path d="m60.995 14.379s-.176-.263-.968-.572c.176 1.76.704 6.118.704 7.658-1.585 2.025-4.974 3.83-4.974 3.83s-2.993-1.013-4.709-2.245c1.849 1.673 4.842 3.256 4.842 3.256s4.181-2.201 5.721-4.181c0-1.98-.616-7.746-.616-7.746z" fill="#eaa417"/><path d="m56.594 13.191c-.221 0-.44 0-.704-.044-4.358.087-5.106 1.188-5.106 1.188s-.616 5.81-.616 7.746c.616.75 1.583 1.585 2.597 2.246-.748-6.647-.22-8.408.264-10.432 1.1-.484 2.465-.484 3.565-.704z" fill="#fcf1c5"/><path d="m79.526 17.768s-4.093-8.847-23.593-9.022c-19.499-.176-23.68 9.022-23.68 9.022s1.364-1.716 4.445-3.565c.087.837.616 3.301 1.76 4.006 2.112-.837 7.395-3.169 11.047-3.39.045-.836.176-1.099.176-1.099s2.817-1.189 6.162-1.189c3.566 0 6.075 1.189 6.075 1.189s.22.351.176 1.099c3.609.221 9.244 2.818 11.224 3.39 1.145-.661 1.497-3.169 1.585-4.006 3.214 1.849 4.623 3.565 4.623 3.565z" fill="#f1c410"/><path d="m38.855 12.002c-5.149 2.597-6.602 5.766-6.602 5.766s1.364-1.716 4.445-3.565c.087.837.616 3.301 1.76 4.006.396-.132 1.144-.441 1.716-.661-.923-1.981-1.362-4.093-1.319-5.546z" fill="#eaa417"/><path d="m60.556 8.965c-1.453-.132-2.993-.22-4.622-.22-3.961-.044-7.306.309-10.079.924h-.044c-.132.043-.221.043-.352.087-.045 0-.132.045-.176.045-.089.044-.176.044-.309.087-.043 0-.132.043-.176.043-.087 0-.176.044-.22.044-.043 0-.132.045-.176.045-.089 0-.176.044-.22.044-.043 0-.132.043-.176.043-.133.044-.265.089-.353.089-.043 0-.089.044-.176.044-.087.043-.176.043-.22.087-.043 0-.132.045-.176.045-.089 0-.133.043-.22.043-.045 0-.132.044-.176.044-.089.043-.133.043-.22.089-.045 0-.088.043-.132.043-1.057.352-2.025.748-2.862 1.144 0 0 1.365-.484 2.862-.88 0 1.585 0 4.006.881 5.502 1.275-.441 3.344-1.057 4.62-1.366-.307-1.055-.572-4.137-.263-5.192 1.496-.438 4.665-.921 12.985-.834z" fill="#fcf1c5"/><path d="m69.975 10.901c.089 1.453 0 3.125-.529 4.622-.307.043-1.012.132-2.155-.044-1.276-.176-3.037-.616-4.227-.572 1.85.263 4.007 1.012 5.942 1.716.044 0 .044.043.089.043.088.045.22.089.308.132.043 0 .089.044.176.044.089.045.133.045.22.089.045 0 .133.043.177.043.089.043.176.043.22.089 1.321.483 2.421.924 3.125 1.144 1.145-.661 1.497-3.169 1.585-4.006 3.213 1.849 4.622 3.565 4.622 3.565s-1.939-4.223-9.553-6.865z" fill="#eaa417"/><path d="m95.15 63.808c-.615-6.293-5.633-11.839-8.273-16.372-2.641-4.535-3.565-9.024-4.27-13.822-.705-4.796 1.1-7.306 4.27-9.462-3.918.748-5.37 3.829-5.37 3.829-.483 11.445 1.057 17.914 1.805 20.204v.044c.131.396.22.705.264.835.309.881.661 1.981.661 1.981.439.749 3.564 5.723 5.104 11.004-.043-2.685-.968-5.898-1.805-8.319 1.805 2.643 3.61 6.251 4.006 10.521.968 10.036-7.175 13.953-10.916 15.846-.66 4.005-3.257 5.81-3.257 5.81 16.725-4.536 18.443-14.88 17.781-22.099z" fill="#f1c410"/><path d="m83.312 48.271c.131.396.22.705.264.837.22.703.484 1.54.615 1.847 0 0 0-.044 0-.087-.439-4.006-3.3-11.18-1.892-21.479.309-2.245 2.288-4.006 3.784-5.062-3.344.968-4.576 3.652-4.576 3.652-.484 11.489 1.056 17.96 1.805 20.292z" fill="#fcf1c5"/><path d="m86.039 51.749c.572 2.024.925 3.608 1.101 4.753.792 1.673 1.586 3.61 2.158 5.59-.046-2.685-.969-5.897-1.806-8.318l.044.044c-.792-1.454-1.497-2.069-1.497-2.069z" fill="#eaa417"/><path d="m95.15 63.808c-.439-4.62-3.212-8.803-5.722-12.455 1.672 4.621 3.345 11.048 2.201 15.846-.66 7.966-7.57 11.312-10.915 12.983-.661 4.007-3.258 5.81-3.258 5.81 16.638-4.621 18.356-14.965 17.694-22.184z" fill="#eaa417"/><path d="m16.715 63.808c.617-6.293 5.635-11.839 8.276-16.372 2.641-4.535 3.565-9.024 4.27-13.822.659-4.753-1.101-7.306-4.27-9.462 3.917.748 5.37 3.829 5.37 3.829.483 11.445-1.057 17.914-1.805 20.204v.044c-.132.396-.22.705-.264.835-.309.881-.661 1.981-.661 1.981-.439.749-3.565 5.723-5.105 11.004.044-2.685.968-5.898 1.804-8.319-1.804 2.643-3.608 6.251-4.004 10.521-.969 10.034 7.174 13.951 10.915 15.844.661 4.005 3.258 5.81 3.258 5.81-16.77-4.534-18.487-14.878-17.784-22.097z" fill="#f1c410"/><path d="m29.128 44.75c-.087.309-.176.616-.353 1.013-.352 1.056-.835 2.112-.835 2.112-.397.749-2.949 5.15-4.887 10.079-.351 1.409-.572 2.861-.572 4.182 1.542-5.281 4.666-10.211 5.106-11.004 0 0 .353-1.099.66-1.98.045-.132.176-.441.265-.837v-.044c.307-1.057.835-2.993 1.231-5.854-.175.969-.395 1.761-.615 2.333.044 0 .044 0 0 0z" fill="#eaa417"/><path d="m27.236 45.234c2.245-6.207 2.332-10.608 2.112-12.721-.044.352-.044.748-.132 1.146-.66 4.753-1.628 9.286-4.269 13.82-2.642 4.534-7.66 10.036-8.275 16.375 0 .131-.044.307-.044.439 1.277-5.15 1.497-5.547 3.345-8.45 2.156-3.435 5.81-6.604 7.263-10.609z" fill="#fcf1c5"/><path d="m31.813 82.339c-.131-.309-.22-.615-.307-.924 0-.044 0-.089-.043-.089 0-.044-.045-.088-.045-.176 0-.044-.043-.088-.043-.175 0-.046-.044-.089-.044-.133 0-.089-.043-.133-.043-.22 0-.045 0-.089-.045-.133-.044-.132-.044-.22-.044-.352-3.741-1.893-11.839-5.811-10.915-15.846.264-2.86 2.156-8.011 3.873-10.3.441-1.938.793-2.905 1.365-4.534-1.893 2.773-5.942 9.596-6.514 16.418-.309 3.609.352 7.264.748 8.848-1.629-.748-2.245-3.082-2.553-3.302 1.453 5.634 5.898 11.399 17.209 14.525-.002.002-1.586-1.098-2.599-3.607z" fill="#eaa417"/></svg>