<svg version="1.1" class="logo" xmlns="http://www.w3.org/2000/svg" xmlns:xlink="http://www.w3.org/1999/xlink" x="0px" y="0px"
    viewBox="0 0 110 100" enable-background="new 0 0 110 100" preserveAspectRatio="none">
   <g>
     <path fill="#014358" d="M102.326,65.48c-0.222-2.332-0.748-4.797-1.629-7.218c-0.748-2.113-1.762-4.226-2.993-6.294
       c-0.396-0.661-0.924-1.364-1.585-2.289c-1.54-2.114-3.872-5.326-5.545-9.507c-1.806-4.491-2.597-7.263-2.114-9.683
       c0.177-0.176,5.459-4.006,5.459-4.006l-0.528-4.842l-0.396-2.068l-1.981-0.661c-0.309-0.087-1.937-0.572-4.313-0.616
       c-0.792-1.805-2.157-4.137-4.489-6.471c-2.597-2.552-5.854-4.62-9.727-6.073C67.862,4.036,62.315,3.156,56.11,3.112h-0.044
       c-6.251,0-11.752,0.879-16.374,2.597c-3.874,1.451-7.131,3.476-9.727,6.073c-2.333,2.333-3.698,4.666-4.491,6.471
       c-2.421,0-4.005,0.484-4.313,0.616l-1.98,0.661l-0.396,2.069l-0.528,4.842c0,0,5.281,3.785,5.458,4.004
       c0.528,2.421-0.309,5.15-2.112,9.684c-1.672,4.182-4.006,7.395-5.546,9.507c-0.661,0.924-1.189,1.628-1.585,2.29
       c-1.231,2.068-2.245,4.225-2.993,6.293c-0.879,2.466-1.451,4.887-1.627,7.219c-0.221,2.687,0,5.327,0.66,7.835
       c0.748,2.729,2.025,5.37,3.874,7.747c1.584,2.069,3.917,4.094,6.954,5.942c2.641,1.628,5.898,3.213,9.64,4.666
       c6.514,2.552,14.701,4.929,24.341,7.041l0.792,0.176l0.792-0.176c20.291-5.017,34.992-9.947,40.846-17.605
       c1.805-2.377,3.125-4.974,3.873-7.747C102.326,70.807,102.546,68.21,102.326,65.48z"/>
   </g>
</svg>
