<?xml version="1.0" encoding="UTF-8"?>
<svg width="1536px" height="1536px" viewBox="0 0 1536 1536" version="1.1" xmlns="http://www.w3.org/2000/svg" xmlns:xlink="http://www.w3.org/1999/xlink">
    <!-- Generator: Sketch 52.2 (67145) - http://www.bohemiancoding.com/sketch -->
    <title>Group 9</title>
    <desc>Created with Sketch.</desc>
    <g id="Page-1" stroke="none" stroke-width="1" fill="none" fill-rule="evenodd">
        <g id="Group-9" fill="#e72e78">
            <path d="M737.624752,1369.02032 C743.324945,1364.72394 747.335192,1361.9577 751.066282,1358.85243 C793.33296,1323.68934 835.668676,1288.60125 877.728238,1253.19214 C890.743529,1242.23218 905.02553,1237.21574 921.98503,1239.57094 C938.278158,1241.83014 954.574287,1244.42837 970.960466,1245.61047 C1102.38909,1255.10031 1219.30459,1218.94413 1317.29448,1130.04632 C1399.57357,1055.39676 1443.05293,961.500502 1439.18977,849.53966 C1435.51571,743.000295 1389.17875,655.11057 1308.88077,586.248517 C1208.01226,499.744913 1089.731,466.670006 958.116271,479.34012 C862.854906,488.508926 778.705766,524.134057 705.929997,586.326524 C589.887991,685.49124 546.675783,839.857809 596.398638,979.313067 C623.242676,1054.60769 671.419664,1113.99491 735.613626,1160.73901 C754.863409,1174.75625 763.13004,1191.86675 759.32691,1216.07288 C751.456501,1266.15328 744.996882,1316.4527 737.624752,1369.02032 Z M656.50731,1536 C620.586188,1518.31045 621.402645,1488.14279 626.775655,1454.58184 C638.437188,1381.70844 648.198656,1308.52901 659.247846,1235.55659 C660.75469,1225.60172 655.498745,1221.22133 649.249245,1215.93787 C570.716251,1149.51503 514.758903,1067.96786 492.012161,967.143998 C453.194415,795.093875 501.974742,647.543905 628.339531,527.221329 C741.103701,419.850891 878.805842,373.835846 1033.71362,380.658446 C1184.24795,387.289029 1312.861,444.201031 1415.36542,555.552819 C1482.11681,628.066193 1522.34235,713.636714 1533.3225,812.21638 C1533.58064,814.529583 1535.07848,816.698774 1536,818.93697 L1536,902.944355 C1535.04246,906.271647 1533.60166,909.541934 1533.19343,912.932232 C1518.49719,1034.82395 1461.94551,1134.59172 1369.25659,1213.19263 C1244.24256,1319.20694 1098.02465,1356.91726 936.330066,1340.70383 C930.335708,1340.10078 922.630392,1342.41698 917.866723,1346.12231 C898.151679,1361.47166 879.367156,1378.01211 860.045332,1393.87451 C802.253957,1441.31168 744.372532,1488.63184 686.524126,1536 L656.50731,1536 Z" id="Fill-1"></path>
            <path d="M575.920938,0 C604.288044,5.02665127 633.027098,8.52880173 660.959264,15.3350376 C805.50642,50.5546073 918.614893,129.735618 995.473342,258.336864 C1015.50159,291.845872 998.652905,328.782006 961.577995,334.633928 C942.431623,337.658922 924.032149,327.857702 912.315758,307.616053 C868.335795,231.619087 805.494422,176.442962 726.40128,139.500826 C558.148378,60.9200123 354.410347,90.212635 218.738972,213.613172 C142.084495,283.338077 98.5514709,370.495709 96.5747423,474.73195 C94.4180383,588.493321 141.3166,681.697939 225.59603,756.752595 C236.394548,766.367753 248.18293,774.878549 259.629358,783.755465 C276.51404,796.848766 283.149129,813.276163 279.831585,834.94028 C272.062651,885.641935 265.439561,936.520649 257.928592,990.376341 C285.938746,967.028671 311.897183,945.394564 337.85262,923.757456 C345.528566,917.359354 352.943548,910.607136 360.925452,904.611167 C382.57948,888.348824 411.108563,891.748941 427.999244,912.275684 C444.478982,932.304264 442.370272,962.326126 421.874085,979.569791 C356.096115,1034.90797 289.949196,1089.802 223.832272,1144.73505 C207.154562,1158.5936 188.203164,1160.81433 169.305758,1150.85406 C148.947553,1140.12553 141.274606,1121.66647 144.352183,1099.17408 C150.438348,1054.69047 156.935456,1010.26387 163.366573,965.825276 C168.723838,928.799112 174.663022,891.850975 179.183402,854.722778 C179.831313,849.423037 175.364926,841.653485 170.874542,837.839232 C93.3381866,771.961591 39.0786353,691.205062 13.4681511,592.214544 C7.76893348,570.181306 4.42739221,547.535867 0,525.17252 L0,441.144917 C0.995863288,437.327663 2.06671628,433.528415 2.97559151,429.690154 C10.7475246,396.811353 14.8449621,362.522089 26.8493141,331.272824 C92.570292,160.18062 220.970665,60.574899 395.003774,15.4160642 C422.776961,8.20769625 451.597005,5.03865521 479.934115,0 L575.920938,0 Z" id="Fill-3"></path>
            <path d="M1157,750.141281 C1154.02001,806.495666 1136.77692,846.115906 1097.25599,874.602045 C1087.95253,881.305902 1078.2255,887.991761 1070.72746,896.477313 C1064.21473,903.847056 1058.59421,913.217457 1056.0468,922.638849 C1049.29976,947.558598 1028.68916,963.161935 1002.65028,960.756346 C978.302674,958.509729 960.614985,938.797093 959.869987,913.100477 C959.016845,883.732488 971.907109,859.682591 991.117837,839.23508 C1004.72005,824.762549 1020.34098,812.017724 1035.98292,799.67183 C1055.26275,784.455426 1064.17869,764.199882 1057.27544,747.138793 C1050.49236,730.380652 1024.56764,717.767804 1002.74942,720.908269 C977.698865,724.516653 959.671722,736.658581 949.409979,760.996429 C939.031078,785.616228 912.048942,796.072444 888.248066,786.852017 C864.023622,777.469618 851.752187,752.210928 859.133072,726.922243 C874.37849,674.704152 932.443255,629.978783 991.871847,624.684686 C1056.70167,618.910671 1118.86993,650.060357 1143.32569,702.839352 C1151.30137,720.047416 1154.08009,739.65507 1157,750.141281" id="Fill-5"></path>
            <path d="M1007.83987,1103.99997 C980.498606,1104.02998 959.84183,1083.07847 960.000913,1055.4813 C960.156994,1028.84466 980.798763,1008.1753 1007.41965,1008.00121 C1035.02505,1007.81811 1056.012,1028.45745 1055.99999,1055.77546 C1055.99099,1083.39965 1035.44227,1103.97295 1007.83987,1103.99997" id="Fill-7"></path>
        </g>
    </g>
</svg>
