<?xml version="1.0" encoding="UTF-8"?>
<svg width="1603px" height="1360px" viewBox="0 0 1603 1360" version="1.1" xmlns="http://www.w3.org/2000/svg" xmlns:xlink="http://www.w3.org/1999/xlink">
    <!-- Generator: Sketch 52.2 (67145) - http://www.bohemiancoding.com/sketch -->
    <title>if_social_network_web_media_-32_2878030</title>
    <desc>Created with Sketch.</desc>
    <g id="Page-1" stroke="none" stroke-width="1" fill="none" fill-rule="evenodd">
        <g id="if_social_network_web_media_-32_2878030" fill="#9C215B">
            <path d="M169.945021,549 C158.844019,549 147.743018,545.82659 138.227874,537.893064 C130.298587,529.959538 -69.5194401,352.248555 25.6320013,120.589595 C31.9754307,106.309249 44.6622896,95.2023121 60.5208632,92.0289017 C76.3794367,88.8554913 92.2380103,93.6156069 103.339012,106.309249 C368.17719,383.982659 615.570938,415.716763 726.580953,414.130058 C721.823381,391.916185 720.237524,369.702312 720.237524,347.488439 C720.237524,157.083815 874.065687,0 1062.78271,0 C1153.17658,0 1237.22702,34.9075145 1300.66132,98.3757225 C1406.91376,92.0289017 1470.34805,39.6676301 1471.93391,39.6676301 C1492.55006,22.2138728 1522.68135,25.3872832 1538.53992,44.4277457 C1555.98435,65.0549133 1552.81264,95.2023121 1533.78235,111.069364 C1530.61063,114.242775 1441.80262,188.817919 1295.90374,193.578035 C1294.31789,193.578035 1294.31789,193.578035 1292.73203,193.578035 C1272.11588,193.578035 1251.49974,184.057803 1237.22702,169.777457 C1191.23716,122.176301 1127.80286,95.2023121 1061.19686,95.2023121 C927.984837,93.6156069 816.974822,206.271676 816.974822,344.315029 C816.974822,364.942197 820.146537,387.156069 824.904109,407.783237 C831.247539,431.583815 826.489967,455.384393 812.21725,474.424855 C797.944534,493.465318 775.742531,506.15896 751.954671,506.15896 C466.500347,522.026012 225.450028,349.075145 95.409725,230.072254 C85.8945809,363.355491 195.318739,460.144509 200.076311,464.904624 C219.106599,482.358382 222.278314,512.50578 204.833883,531.546243 C196.904596,542.653179 182.63188,549 169.945021,549 Z" id="Shape" fill-rule="nonzero"></path>
            <path d="M1367.93851,412 C1352.19684,412 1336.45516,404.073943 1327.01015,388.22183 C1314.41681,366.02887 1322.28765,335.909855 1344.326,323.228164 C1429.33106,274.086611 1517.48445,161.536604 1519.05862,159.951393 C1534.8003,139.343645 1564.70949,136.173223 1585.17367,152.025336 C1605.63785,167.87745 1608.78618,197.996466 1593.04451,218.604214 C1588.322,223.359848 1492.29777,347.006334 1391.55103,405.659155 C1383.68019,408.829577 1375.80935,412 1367.93851,412 Z" id="Path"></path>
            <path d="M275.998211,831 C272.818903,831 269.639595,831 266.460287,829.409014 C256.922362,827.818027 37.5500951,778.497452 7.34666708,541.440492 C4.16735886,515.984711 23.2432082,492.119917 48.6776739,487.346958 C74.1121396,484.164985 97.9569512,503.256821 102.725914,528.712602 C124.981071,698.948136 280.767174,733.949835 287.12579,735.540822 C312.560256,740.31378 330.046451,765.769561 323.687835,792.816329 C317.329218,816.681123 298.253369,831 275.998211,831 Z" id="Path"></path>
            <path d="M426.538334,1066.79433 C399.643389,1068.384 366.420223,1060.43565 345.8535,1054.07697 C280.989223,1035.00092 190.812057,990.490145 138.604223,879.213207 C127.529835,855.368149 137.022168,826.754079 160.753001,815.626385 C184.483834,804.498691 212.960834,814.036715 224.035223,837.881773 C284.153334,963.465745 412.299834,969.824428 423.374222,971.414098 C450.269167,969.824428 474,992.079815 474,1019.10421 C474,1044.53894 451.851222,1066.79433 426.538334,1066.79433 Z" id="Shape" fill-rule="nonzero"></path>
            <path d="M428.5,1170 C425.34375,1170 422.1875,1170 419.03125,1168.41569 C415.875,1168.41569 412.71875,1166.83137 409.5625,1165.24706 C406.40625,1163.66275 403.25,1162.07843 401.671875,1160.49412 C398.515625,1158.9098 396.9375,1157.32549 393.78125,1154.15686 C392.203125,1152.57255 389.046875,1149.40392 387.46875,1146.23529 C385.890625,1143.06667 384.3125,1141.48235 382.734375,1138.31373 C381.15625,1135.1451 381.15625,1131.97647 379.578125,1128.80784 C379.578125,1125.63922 378,1122.47059 378,1119.30196 C378,1116.13333 378,1112.96471 379.578125,1109.79608 C379.578125,1106.62745 381.15625,1103.45882 382.734375,1100.2902 C384.3125,1097.12157 385.890625,1093.95294 387.46875,1092.36863 C389.046875,1089.2 390.625,1087.61569 393.78125,1084.44706 C395.359375,1082.86275 398.515625,1079.69412 401.671875,1078.1098 C404.828125,1076.52549 406.40625,1074.94118 409.5625,1073.35686 C412.71875,1071.77255 415.875,1071.77255 419.03125,1070.18824 C425.34375,1068.60392 431.65625,1068.60392 437.96875,1070.18824 C441.125,1070.18824 444.28125,1071.77255 447.4375,1073.35686 C450.59375,1074.94118 453.75,1076.52549 455.328125,1078.1098 C458.484375,1079.69412 460.0625,1081.27843 463.21875,1084.44706 C466.375,1087.61569 467.953125,1089.2 469.53125,1092.36863 C471.109375,1095.53725 472.6875,1097.12157 474.265625,1100.2902 C475.84375,1103.45882 475.84375,1106.62745 477.421875,1109.79608 C477.421875,1112.96471 479,1116.13333 479,1119.30196 C479,1122.47059 479,1125.63922 477.421875,1128.80784 C477.421875,1131.97647 475.84375,1135.1451 474.265625,1138.31373 C472.6875,1141.48235 471.109375,1144.65098 469.53125,1146.23529 C467.953125,1147.81961 466.375,1150.98824 463.21875,1154.15686 C461.640625,1155.74118 458.484375,1158.9098 455.328125,1160.49412 C452.171875,1162.07843 450.59375,1163.66275 447.4375,1165.24706 C444.28125,1166.83137 441.125,1166.83137 437.96875,1168.41569 C434.8125,1168.41569 431.65625,1170 428.5,1170 Z" id="Path"></path>
            <path d="M70.4847905,1278 C45.1595689,1278 23,1257.51236 23,1232.2968 C23,1205.50527 43.5767425,1185.01763 68.9019641,1183.44166 C152.791761,1181.86569 228.767425,1164.52999 292.080479,1134.58652 C315.822875,1123.55471 344.313749,1133.01055 355.393533,1156.65013 C366.473318,1180.28972 356.97636,1208.65722 333.233964,1219.68902 C257.2583,1255.93639 168.620024,1274.84806 70.4847905,1278 C70.4847905,1278 70.4847905,1278 70.4847905,1278 Z" id="Path"></path>
            <path d="M456.788205,1360 C409.254588,1360 355.383156,1356.82703 298.342816,1348.8946 C272.991554,1345.72163 253.978107,1320.33785 258.731469,1294.95408 C261.900377,1269.5703 287.251639,1250.53247 312.602901,1255.29193 C483.723921,1280.6757 629.493679,1250.53247 631.078133,1250.53247 C1355.17356,1077.60551 1318.73112,395.416559 1317.14667,366.859813 C1315.56221,339.889552 1334.57566,317.678749 1361.51138,316.092263 C1388.44709,314.505777 1410.62945,333.543608 1412.2139,360.513869 C1413.79835,392.243588 1454.99415,1152.17034 651.676033,1342.54865 C645.338218,1344.13514 567.699977,1360 456.788205,1360 Z" id="Path"></path>
        </g>
    </g>
</svg>
